<svg xmlns="http://www.w3.org/2000/svg" xmlns:xlink="http://www.w3.org/1999/xlink" width="127.693" height="127.739" viewBox="0 0 127.693 127.739">
  <defs>
    <filter id="Path_6202" x="0" y="0" width="127.693" height="127.739" filterUnits="userSpaceOnUse">
      <feOffset dy="3" input="SourceAlpha"/>
      <feGaussianBlur stdDeviation="3" result="blur"/>
      <feFlood flood-opacity="0.161"/>
      <feComposite operator="in" in2="blur"/>
      <feComposite in="SourceGraphic"/>
    </filter>
  </defs>
  <g id="Group_1934" data-name="Group 1934" transform="translate(9 6)">
    <g transform="matrix(1, 0, 0, 1, -9, -6)" filter="url(#Path_6202)">
      <path id="Path_6202-2" data-name="Path 6202" d="M3199.938,755.79a109.689,109.689,0,0,0,0-43.7,36.376,36.376,0,0,0-30.07-30.667,109.644,109.644,0,0,0-45.113,0,36.378,36.378,0,0,0-29.952,29.9,109.621,109.621,0,0,0,0,45.233,36.38,36.38,0,0,0,29.7,29.859,109.641,109.641,0,0,0,45.626,0A36.377,36.377,0,0,0,3199.938,755.79Z" transform="translate(-3083.44 -673.07)" fill="#f4f4f4"/>
    </g>
    <g id="Group_1933" data-name="Group 1933" transform="translate(30.873 26.947)">
      <path id="Path_6203" data-name="Path 6203" d="M3259.467,808.312A14.076,14.076,0,1,0,3245.4,794.24,14.091,14.091,0,0,0,3259.467,808.312Z" transform="translate(-3235.496 -780.161)" fill="#b2b2b2"/>
      <path id="Path_6204" data-name="Path 6204" d="M3253.929,901.675a20.217,20.217,0,0,0-9.179-7.265,5.469,5.469,0,0,0-4.834.189,17.509,17.509,0,0,1-7.6,1.919h-.15a17.47,17.47,0,0,1-7.611-1.919,5.487,5.487,0,0,0-4.841-.189,20.153,20.153,0,0,0-9.172,7.265,13.929,13.929,0,0,0-2.271,6.778,5.518,5.518,0,0,0,1.755,4.375c6.585,6.168,18.119,6.628,21.4,6.628.355,0,.614-.005.759-.01l.324,0c2.385.032,14.917-.063,21.931-6.621a5.567,5.567,0,0,0,1.756-4.374h0A13.937,13.937,0,0,0,3253.929,901.675Z" transform="translate(-3208.26 -863.608)" fill="#b2b2b2"/>
    </g>
  </g>
</svg>
