<svg id="_x32_9_Change_Picture" xmlns="http://www.w3.org/2000/svg" width="72" height="75.316" viewBox="0 0 72 75.316">
  <g id="Group_5230" data-name="Group 5230" transform="translate(0 0)">
    <path id="Path_16456" data-name="Path 16456" d="M31.888,31.776A7.888,7.888,0,1,0,24,23.888,7.9,7.9,0,0,0,31.888,31.776Z" transform="translate(3.045 2.03)" fill="#a8a8a8"/>
    <path id="Path_16457" data-name="Path 16457" d="M38.157,32H26.888A7.9,7.9,0,0,0,19,39.888v2.254a3.385,3.385,0,0,0,3.381,3.381H42.664a3.385,3.385,0,0,0,3.381-3.381V39.888A7.9,7.9,0,0,0,38.157,32Z" transform="translate(2.41 4.06)" fill="#a8a8a8"/>
    <path id="Path_16459" data-name="Path 16459" d="M5.634,34.933A29.3,29.3,0,1,1,60.27,49.582H63.1a4.981,4.981,0,0,1,3,1.063A34.928,34.928,0,1,0,47.328,67.584V61.459A29.262,29.262,0,0,1,5.634,34.933Z" transform="translate(0 0)" fill="#a8a8a8"/>
    <path id="Path_16460" data-name="Path 16460" d="M52.981,52.075a5.219,5.219,0,0,1,3.693-3.248A27.134,27.134,0,1,0,46.44,58.058v-.349a5.641,5.641,0,0,1,5.634-5.634Zm-3.16-6.761a5.641,5.641,0,0,1-5.634,5.634H23.9a5.641,5.641,0,0,1-5.634-5.634V43.06A10.148,10.148,0,0,1,27.73,32.952a10.142,10.142,0,1,1,12.63,0A10.148,10.148,0,0,1,49.821,43.06Z" transform="translate(0.888 0.888)" fill="none"/>
    <circle id="Ellipse_178" data-name="Ellipse 178" cx="14" cy="14" r="14" transform="translate(44 47.316)" fill="#a8a8a8"/>
    <g id="Group_5509" data-name="Group 5509" transform="translate(51.768 55.614)">
      <rect id="Rectangle_2932" data-name="Rectangle 2932" width="3.045" height="12.79" rx="1.523" transform="translate(5.039 0)" fill="#fff"/>
      <rect id="Rectangle_2933" data-name="Rectangle 2933" width="2.436" height="13.401" rx="1.218" transform="translate(13.401 5.152) rotate(90)" fill="#fff"/>
    </g>
  </g>
</svg>
